<?xml version="1.0" encoding="UTF-8"?>
<!-- Generator: visioncortex VTracer 0.6.5 -->
<svg version="1.1" xmlns="http://www.w3.org/2000/svg" width="512" height="512">
<path d="M0,0 L8,0 L9,5 L14,4 L22,13 L30,29 L33,35 L38,56 L39,69 L39,130 L84,130 L84,116 L86,111 L88,110 L95,110 L98,115 L98,130 L252,133 L261,137 L266,144 L268,150 L268,213 L253,215 L139,226 L90,226 L90,320 L87,326 L84,327 L69,327 L62,323 L62,317 L43,318 L37,360 L30,397 L27,410 L77,410 L77,464 L76,465 L71,465 L69,461 L-45,461 L-47,465 L-52,465 L-53,464 L-53,410 L-3,410 L-11,372 L-18,326 L-19,318 L-38,317 L-38,323 L-45,327 L-60,327 L-64,325 L-66,320 L-66,226 L-115,226 L-239,214 L-244,213 L-244,149 L-239,139 L-234,135 L-227,133 L-74,130 L-74,116 L-72,111 L-70,110 L-63,110 L-60,115 L-60,130 L-15,130 L-15,69 L-14,56 L-9,35 L-1,18 Z " fill="#000000" transform="translate(244,24)"/>
</svg>
