<?xml version="1.0" encoding="UTF-8"?>
<!-- Generator: visioncortex VTracer 0.6.5 -->
<svg version="1.1" xmlns="http://www.w3.org/2000/svg" width="512" height="512">
<path d="M0,0 L8,0 L15,8 L20,19 L25,37 L29,60 L33,100 L36,152 L49,163 L63,175 L74,184 L77,187 L78,168 L101,168 L102,208 L116,220 L130,232 L143,243 L149,248 L150,228 L173,228 L174,269 L184,278 L195,287 L210,300 L224,312 L229,316 L231,325 L235,353 L230,352 L189,335 L143,316 L97,297 L86,293 L36,281 L36,299 L35,338 L32,371 L26,413 L22,434 L23,438 L39,451 L49,459 L65,472 L79,483 L87,489 L87,512 L76,511 L10,498 L3,499 L-2,498 L-73,512 L-79,512 L-79,489 L-65,478 L-49,465 L-35,454 L-18,440 L-14,437 L-16,424 L-22,387 L-26,352 L-27,338 L-28,299 L-28,281 L-73,292 L-84,295 L-125,312 L-171,331 L-217,350 L-224,353 L-227,352 L-222,318 L-218,313 L-207,304 L-192,291 L-181,282 L-166,269 L-165,228 L-142,228 L-141,248 L-131,239 L-120,230 L-105,217 L-94,208 L-93,168 L-70,168 L-69,187 L-57,176 L-46,167 L-31,154 L-28,152 L-25,99 L-21,60 L-17,37 L-11,16 L-5,5 Z " fill="#000000" transform="translate(252,0)"/>
</svg>
