<?xml version="1.0" encoding="UTF-8"?>
<!-- Generator: visioncortex VTracer 0.6.5 -->
<svg version="1.1" xmlns="http://www.w3.org/2000/svg" width="512" height="512">
<path d="M0,0 L12,0 L18,4 L26,13 L34,29 L39,45 L42,61 L43,69 L44,95 L45,185 L64,199 L83,213 L102,227 L108,231 L109,212 L144,212 L144,259 L148,261 L166,274 L186,289 L205,303 L224,317 L225,318 L225,361 L216,358 L170,339 L131,323 L85,304 L46,288 L41,286 L36,404 L35,429 L35,453 L58,466 L82,479 L90,484 L90,512 L83,512 L9,499 L-2,500 L-71,512 L-78,512 L-78,484 L-57,472 L-33,459 L-23,453 L-23,429 L-29,290 L-29,286 L-68,302 L-114,321 L-160,340 L-199,356 L-211,361 L-213,361 L-213,318 L-195,304 L-181,294 L-162,280 L-143,266 L-133,259 L-132,212 L-97,212 L-96,231 L-82,221 L-63,207 L-44,193 L-33,185 L-32,95 L-31,69 L-28,49 L-23,32 L-18,20 L-11,9 L-4,2 Z " fill="#000000" transform="translate(250,0)"/>
</svg>
