<?xml version="1.0" encoding="UTF-8"?>
<!-- Generator: visioncortex VTracer 0.6.5 -->
<svg version="1.1" xmlns="http://www.w3.org/2000/svg" width="512" height="512">
<path d="M0,0 L12,0 L17,4 L17,6 L19,6 L25,16 L30,30 L33,44 L34,73 L34,204 L39,206 L48,211 L57,217 L66,222 L66,224 L70,224 L70,226 L76,228 L79,230 L79,232 L83,232 L83,234 L89,236 L90,224 L123,224 L124,258 L135,264 L142,269 L150,273 L164,282 L173,287 L182,293 L193,299 L194,300 L194,333 L185,331 L176,328 L161,323 L151,319 L131,313 L115,307 L106,304 L88,298 L73,293 L56,287 L41,282 L33,279 L32,281 L31,367 L30,400 L28,433 L28,469 L34,472 L49,481 L59,486 L68,491 L68,512 L58,512 L33,507 L8,503 L-8,505 L-25,508 L-42,511 L-46,512 L-56,512 L-56,491 L-40,482 L-29,476 L-18,470 L-16,469 L-16,452 L-17,417 L-18,400 L-19,367 L-20,281 L-21,279 L-31,283 L-44,287 L-68,295 L-79,299 L-92,303 L-100,306 L-128,316 L-141,320 L-167,329 L-173,331 L-182,333 L-182,300 L-173,294 L-169,294 L-168,291 L-156,284 L-138,273 L-129,268 L-120,262 L-112,258 L-111,224 L-78,224 L-77,236 L-71,234 L-71,232 L-67,232 L-66,229 L-61,228 L-61,226 L-58,226 L-58,224 L-54,224 L-53,221 L-44,216 L-35,210 L-24,204 L-22,204 L-22,70 L-21,44 L-16,23 L-8,7 L-5,6 L-4,3 Z " fill="#000000" transform="translate(250,0)"/>
</svg>
