<?xml version="1.0" encoding="UTF-8"?>
<!-- Generator: visioncortex VTracer 0.6.5 -->
<svg version="1.1" xmlns="http://www.w3.org/2000/svg" width="512" height="512">
<path d="M0,0 L8,0 L15,8 L20,19 L25,37 L29,60 L33,100 L35,137 L36,193 L47,202 L62,215 L73,224 L76,227 L77,208 L100,208 L101,248 L115,260 L129,272 L142,283 L148,288 L149,268 L150,268 L151,291 L162,300 L171,308 L181,316 L196,329 L209,340 L223,352 L228,356 L230,365 L234,393 L229,392 L188,375 L142,356 L96,337 L85,333 L35,321 L35,339 L31,379 L25,418 L22,434 L23,438 L39,451 L49,459 L65,472 L79,483 L87,489 L87,512 L76,511 L15,499 L13,498 L13,501 L8,501 L6,507 L5,509 L3,509 L0,503 L0,501 L-5,501 L-5,498 L-17,501 L-73,512 L-79,512 L-79,489 L-65,478 L-49,465 L-35,454 L-18,440 L-14,437 L-16,424 L-22,387 L-26,352 L-27,339 L-27,321 L-72,332 L-83,335 L-124,352 L-170,371 L-216,390 L-223,393 L-226,392 L-221,358 L-217,353 L-206,344 L-191,331 L-180,322 L-165,309 L-150,296 L-137,285 L-126,276 L-111,263 L-97,251 L-93,248 L-92,208 L-69,208 L-68,227 L-56,216 L-45,207 L-30,194 L-28,193 L-27,137 L-25,99 L-21,60 L-17,37 L-11,16 L-5,5 Z " fill="#000000" transform="translate(252,0)"/>
</svg>
