<?xml version="1.0" encoding="UTF-8"?>
<!-- Generator: visioncortex VTracer 0.6.5 -->
<svg version="1.1" xmlns="http://www.w3.org/2000/svg" width="1500" height="844">
<path d="M0,0 L1500,0 L1500,844 L0,844 Z " fill="#7C96A7" transform="translate(0,0)"/>
<path d="M0,0 L9,1 L19,3 L23,8 L42,9 L52,11 L54,12 L54,14 L61,16 L65,17 L70,18 L71,22 L69,33 L70,38 L74,41 L75,48 L80,50 L82,45 L85,42 L89,43 L91,47 L91,53 L94,58 L94,72 L92,77 L99,79 L102,82 L109,84 L110,75 L109,74 L110,67 L116,63 L118,56 L123,55 L128,58 L135,61 L141,60 L144,59 L161,59 L167,52 L170,51 L188,50 L191,52 L192,55 L192,63 L197,65 L200,71 L200,79 L197,82 L195,87 L195,89 L204,93 L205,94 L204,103 L203,106 L210,108 L214,115 L216,136 L219,140 L219,145 L216,148 L216,153 L217,154 L227,156 L230,161 L232,166 L235,171 L235,177 L228,178 L221,176 L222,178 L228,180 L238,181 L241,184 L244,193 L247,202 L250,209 L249,214 L239,213 L240,221 L238,223 L237,232 L234,238 L233,239 L226,239 L221,237 L216,240 L210,242 L203,242 L198,238 L198,243 L193,247 L191,247 L191,252 L200,251 L204,257 L204,260 L209,258 L212,256 L217,256 L219,259 L220,267 L222,270 L222,277 L230,276 L235,281 L234,288 L231,292 L233,296 L232,301 L244,300 L250,308 L250,310 L256,310 L262,316 L267,319 L268,323 L273,325 L272,330 L268,333 L265,333 L266,338 L272,341 L273,342 L273,347 L270,349 L263,349 L265,355 L265,360 L262,362 L257,363 L261,365 L264,370 L264,375 L259,378 L248,382 L249,386 L253,391 L253,396 L249,398 L243,398 L241,400 L235,400 L231,396 L228,395 L226,399 L220,404 L210,407 L205,404 L202,399 L200,393 L199,384 L197,380 L190,381 L187,382 L188,383 L195,382 L196,388 L195,391 L197,391 L198,396 L197,401 L198,404 L203,408 L204,410 L213,412 L218,408 L224,409 L226,410 L227,404 L229,401 L235,402 L240,408 L243,413 L247,416 L248,421 L245,430 L237,433 L238,437 L243,442 L241,447 L237,453 L230,456 L229,463 L228,470 L223,475 L219,478 L214,480 L213,485 L215,488 L215,493 L211,496 L201,498 L198,507 L191,506 L186,501 L181,498 L165,494 L159,492 L151,491 L147,487 L144,481 L143,480 L143,475 L148,471 L152,461 L149,462 L144,468 L141,470 L141,489 L146,493 L153,497 L172,499 L181,506 L188,511 L189,513 L189,519 L186,524 L181,526 L174,527 L167,535 L157,541 L153,545 L140,549 L137,552 L134,557 L126,559 L116,562 L110,567 L104,569 L94,571 L90,573 L77,573 L74,571 L73,561 L67,560 L63,556 L60,550 L61,545 L66,539 L68,530 L74,519 L80,515 L85,513 L83,509 L84,500 L88,494 L92,488 L94,487 L93,478 L98,473 L103,467 L104,462 L101,455 L102,451 L107,446 L109,442 L105,440 L102,434 L103,428 L107,415 L103,413 L102,410 L102,402 L101,397 L97,394 L97,392 L93,390 L83,382 L79,376 L75,376 L71,380 L64,380 L60,375 L58,372 L52,369 L47,365 L40,363 L31,361 L24,359 L20,358 L19,351 L21,347 L17,349 L16,354 L14,357 L3,355 L-4,350 L-9,351 L-20,360 L-24,365 L-30,365 L-30,372 L-35,376 L-42,375 L-45,372 L-48,366 L-48,364 L-54,362 L-58,356 L-67,355 L-69,359 L-82,359 L-91,363 L-98,363 L-103,361 L-110,360 L-113,358 L-123,360 L-125,361 L-138,361 L-142,362 L-147,358 L-147,352 L-155,352 L-157,350 L-158,339 L-156,334 L-155,328 L-159,330 L-171,331 L-172,322 L-171,317 L-178,316 L-187,319 L-188,320 L-193,320 L-194,316 L-192,310 L-199,311 L-201,315 L-206,320 L-216,325 L-222,325 L-224,330 L-227,336 L-230,339 L-235,338 L-237,336 L-236,328 L-246,328 L-251,324 L-252,318 L-254,309 L-258,305 L-268,300 L-271,293 L-270,286 L-274,279 L-280,275 L-282,271 L-282,263 L-284,263 L-285,259 L-282,256 L-280,256 L-281,251 L-286,247 L-285,242 L-280,237 L-276,233 L-269,232 L-263,231 L-260,226 L-254,227 L-250,228 L-248,222 L-247,220 L-231,215 L-226,217 L-224,218 L-225,211 L-224,209 L-215,208 L-196,208 L-192,209 L-187,208 L-184,212 L-169,214 L-164,219 L-159,219 L-157,215 L-156,214 L-148,215 L-144,217 L-140,225 L-138,230 L-138,233 L-135,231 L-128,231 L-123,236 L-116,241 L-112,240 L-109,238 L-104,238 L-101,243 L-92,248 L-91,255 L-85,258 L-83,262 L-80,260 L-71,261 L-65,258 L-53,256 L-46,253 L-41,246 L-37,242 L-36,240 L-40,239 L-41,234 L-43,234 L-45,232 L-53,233 L-53,230 L-41,228 L-39,224 L-35,222 L-38,217 L-38,215 L-42,213 L-53,204 L-57,208 L-62,207 L-65,206 L-74,212 L-84,214 L-86,216 L-91,216 L-93,213 L-92,200 L-96,189 L-97,188 L-97,178 L-101,174 L-103,162 L-105,158 L-104,142 L-105,140 L-106,131 L-109,122 L-109,116 L-105,113 L-106,108 L-106,101 L-101,95 L-99,77 L-95,71 L-91,68 L-87,56 L-83,51 L-79,49 L-74,44 L-67,41 L-64,39 L-52,39 L-51,34 L-44,28 L-32,23 L-23,19 L-19,14 L-16,11 L-13,6 L-8,2 Z " fill="#95BD82" transform="translate(749,142)"/>
<path d="M0,0 L5,0 L6,1 L6,11 L1,16 L-4,18 L-15,19 L-18,25 L-22,27 L-28,27 L-30,31 L-39,35 L-46,39 L-51,46 L-56,47 L-57,44 L-62,47 L-65,49 L-66,58 L-71,66 L-76,72 L-76,86 L-81,94 L-83,97 L-80,100 L-79,104 L-81,112 L-83,115 L-82,127 L-80,136 L-81,143 L-79,147 L-79,153 L-80,154 L-79,161 L-76,165 L-75,168 L-74,184 L-71,190 L-68,195 L-69,210 L-64,218 L-65,225 L-68,230 L-75,229 L-78,229 L-80,232 L-86,232 L-95,226 L-102,220 L-107,215 L-109,210 L-119,208 L-124,210 L-129,209 L-138,206 L-139,203 L-143,201 L-148,202 L-155,202 L-155,200 L-169,200 L-185,204 L-200,203 L-209,209 L-219,210 L-225,215 L-237,220 L-246,226 L-255,229 L-260,238 L-265,239 L-270,236 L-272,232 L-271,226 L-266,214 L-265,209 L-265,199 L-263,195 L-256,190 L-254,190 L-253,185 L-255,178 L-254,171 L-251,168 L-249,167 L-240,167 L-242,163 L-242,156 L-240,152 L-239,142 L-235,138 L-231,127 L-227,122 L-223,122 L-222,118 L-215,113 L-212,109 L-207,108 L-207,106 L-205,105 L-207,98 L-205,95 L-195,92 L-193,92 L-191,87 L-183,82 L-181,75 L-182,72 L-182,65 L-176,57 L-172,55 L-171,49 L-167,46 L-162,44 L-150,43 L-149,32 L-144,28 L-142,27 L-135,27 L-135,29 L-132,29 L-130,25 L-124,21 L-118,22 L-115,23 L-110,24 L-108,25 L-106,20 L-99,14 L-91,13 L-89,16 L-82,16 L-70,12 L-61,12 L-59,8 L-50,5 L-45,2 L-21,1 L-18,3 L-6,3 Z " fill="#C8BDA7" transform="translate(720,144)"/>
<path d="M0,0 L10,0 L29,4 L48,7 L52,9 L53,14 L52,19 L53,22 L58,26 L59,28 L68,30 L73,26 L79,27 L81,28 L82,22 L84,19 L90,20 L95,26 L98,31 L102,34 L103,39 L100,48 L92,51 L93,55 L98,60 L96,65 L92,71 L85,74 L84,81 L83,88 L78,93 L74,96 L69,98 L68,103 L70,106 L70,111 L66,114 L56,116 L53,125 L46,124 L41,119 L36,116 L20,112 L14,110 L6,109 L2,105 L-1,99 L-2,98 L-2,93 L3,89 L7,79 L4,80 L-1,86 L-4,88 L-4,107 L1,111 L8,115 L27,117 L36,124 L43,129 L44,131 L44,137 L41,142 L36,144 L29,145 L22,153 L12,159 L8,163 L-5,167 L-8,170 L-11,175 L-19,177 L-29,180 L-35,185 L-41,187 L-51,189 L-55,191 L-68,191 L-71,189 L-72,179 L-78,178 L-82,174 L-85,168 L-84,163 L-79,157 L-77,148 L-71,137 L-65,133 L-60,131 L-62,127 L-61,118 L-57,112 L-53,106 L-51,105 L-52,96 L-47,91 L-42,85 L-41,80 L-44,73 L-43,69 L-38,64 L-36,60 L-40,58 L-43,52 L-42,46 L-38,33 L-42,31 L-43,28 L-43,18 L-39,16 L-29,11 L-9,5 L-3,1 Z " fill="#BCB191" transform="translate(894,524)"/>
<path d="M0,0 L8,1 L15,3 L22,2 L25,1 L32,1 L38,2 L44,2 L45,8 L54,8 L62,15 L66,19 L66,24 L66,26 L71,29 L74,37 L74,48 L76,53 L82,55 L83,59 L82,66 L83,73 L84,77 L89,82 L94,87 L97,95 L106,99 L107,106 L112,111 L113,113 L113,120 L109,125 L103,129 L98,131 L95,135 L92,142 L88,145 L83,146 L82,149 L79,151 L71,150 L68,149 L63,149 L58,153 L48,156 L46,157 L27,159 L19,154 L17,152 L13,151 L13,149 L6,148 L1,145 L0,143 L0,137 L-7,137 L-10,134 L-13,124 L-16,121 L-18,114 L-17,108 L-14,105 L-12,99 L-7,95 L-14,90 L-18,83 L-21,79 L-34,80 L-40,85 L-46,85 L-50,83 L-53,77 L-59,77 L-69,69 L-72,64 L-74,60 L-84,56 L-86,53 L-86,45 L-84,42 L-82,42 L-82,35 L-79,30 L-68,30 L-69,26 L-64,21 L-62,20 L-59,14 L-50,10 L-33,8 L-24,8 L-21,11 L-21,16 L-24,18 L-24,25 L-25,30 L-24,34 L-24,56 L-19,61 L-16,51 L-21,49 L-22,47 L-22,38 L-21,31 L-20,17 L-18,14 L-16,8 L-14,5 L-6,3 Z " fill="#95BD82" transform="translate(553,592)"/>
<path d="M0,0 L10,0 L22,3 L24,4 L30,4 L32,3 L38,3 L45,7 L48,11 L46,16 L45,18 L52,19 L55,24 L58,29 L58,34 L52,41 L45,44 L47,47 L47,57 L44,60 L40,61 L38,68 L30,68 L29,71 L27,71 L25,76 L22,78 L14,78 L11,82 L6,83 L4,88 L-1,91 L-8,90 L-20,85 L-28,78 L-28,76 L-34,76 L-39,72 L-47,70 L-49,67 L-49,62 L-46,57 L-43,52 L-44,41 L-45,34 L-41,30 L-34,25 L-34,16 L-30,12 L-17,6 L-1,1 Z " fill="#C8BDA7" transform="translate(453,127)"/>
<path d="M0,0 L7,1 L9,2 L20,2 L25,5 L31,14 L32,17 L39,20 L40,21 L41,29 L42,34 L41,40 L44,44 L42,48 L37,53 L32,55 L26,64 L19,70 L13,71 L19,64 L26,58 L29,51 L35,48 L36,43 L35,40 L38,36 L36,31 L35,24 L29,18 L23,17 L23,12 L18,9 L9,6 L-2,5 L-8,7 L-10,11 L-22,12 L-28,17 L-34,17 L-34,19 L-46,24 L-52,23 L-58,26 L-66,25 L-65,23 L-54,19 L-48,14 L-35,15 L-30,13 L-26,9 L-22,7 L-11,5 L-2,2 Z " fill="#7C96A7" transform="translate(759,417)"/>
<path d="M0,0 L7,1 L14,4 L16,11 L10,18 L8,24 L9,26 L9,33 L8,37 L7,50 L3,58 L-1,60 L-2,53 L3,48 L4,44 L4,36 L3,33 L4,31 L5,19 L9,14 L11,10 L11,6 L3,6 L-1,7 L-3,3 Z " fill="#7C96A7" transform="translate(585,392)"/>
<path d="M0,0 L1,0 L3,10 L7,15 L11,19 L16,20 L18,19 L24,19 L28,21 L31,24 L33,26 L24,26 L21,27 L15,27 L8,21 L0,16 L-3,14 L-2,4 L-2,1 Z " fill="#7C96A7" transform="translate(657,415)"/>
<path d="M0,0 L6,3 L7,6 L-4,6 L-2,2 Z " fill="#7C96A7" transform="translate(962,311)"/>
</svg>
