<?xml version="1.0" encoding="UTF-8"?>
<!-- Generator: visioncortex VTracer 0.6.5 -->
<svg version="1.1" xmlns="http://www.w3.org/2000/svg" width="1500" height="844">
<path d="M0,0 L1500,0 L1500,844 L0,844 Z " fill="#65ADFE" transform="translate(0,0)"/>
<path d="M0,0 L14,0 L24,2 L28,7 L47,8 L57,10 L60,13 L67,16 L74,16 L76,21 L74,32 L75,37 L79,40 L80,47 L85,49 L87,44 L90,41 L94,42 L96,46 L96,52 L99,57 L99,71 L97,76 L104,78 L107,81 L114,83 L115,74 L114,68 L118,64 L121,62 L124,55 L128,54 L133,57 L140,60 L147,59 L149,58 L166,58 L171,52 L175,50 L184,50 L193,49 L196,51 L197,54 L197,62 L202,64 L205,70 L205,78 L202,81 L200,86 L200,88 L209,92 L210,93 L209,102 L208,105 L215,107 L219,114 L221,135 L224,139 L224,144 L221,147 L221,152 L222,153 L232,155 L235,160 L237,165 L240,170 L240,176 L233,177 L226,175 L227,177 L233,179 L243,180 L246,183 L249,192 L252,201 L255,208 L254,213 L244,212 L245,220 L243,222 L242,231 L239,237 L238,238 L231,238 L226,236 L221,239 L215,241 L209,241 L207,240 L207,238 L203,237 L203,242 L198,246 L196,246 L196,251 L205,250 L209,256 L209,259 L216,256 L222,255 L224,258 L225,266 L227,269 L227,276 L235,275 L240,280 L239,287 L236,291 L238,295 L237,300 L249,299 L256,309 L261,309 L267,315 L272,318 L273,322 L278,324 L277,329 L273,332 L270,332 L271,337 L277,340 L278,341 L278,346 L275,348 L268,348 L270,354 L270,359 L267,361 L262,362 L266,364 L269,369 L269,374 L264,377 L253,381 L254,385 L258,390 L258,395 L254,397 L248,397 L246,399 L240,399 L236,395 L233,394 L231,398 L225,403 L215,406 L210,403 L207,398 L205,392 L204,383 L202,379 L195,380 L192,381 L193,382 L200,381 L201,387 L202,391 L203,395 L202,400 L203,403 L208,407 L209,409 L218,411 L223,407 L229,408 L231,409 L232,403 L234,400 L240,401 L245,407 L248,412 L252,415 L253,420 L250,429 L242,432 L243,436 L248,441 L246,446 L242,452 L235,455 L234,462 L233,469 L228,474 L224,477 L219,479 L218,484 L220,487 L220,492 L216,495 L206,497 L203,506 L196,505 L191,500 L186,497 L170,493 L164,491 L156,490 L152,486 L149,480 L148,479 L148,474 L153,470 L157,460 L154,461 L149,467 L146,469 L146,488 L151,492 L158,496 L177,498 L186,505 L193,510 L194,512 L194,518 L191,523 L186,525 L179,526 L172,534 L162,540 L158,544 L145,548 L142,551 L139,556 L131,558 L121,561 L115,566 L109,568 L99,570 L95,572 L82,572 L79,570 L78,560 L72,559 L68,555 L65,549 L66,544 L71,538 L73,529 L79,518 L85,514 L90,512 L88,508 L89,499 L93,493 L97,487 L99,486 L98,477 L103,472 L108,466 L109,461 L106,454 L107,450 L112,445 L114,441 L110,439 L107,433 L108,427 L112,414 L108,412 L107,409 L107,401 L106,396 L102,393 L102,391 L98,389 L93,385 L88,381 L84,375 L80,375 L76,379 L69,379 L65,374 L65,371 L58,369 L52,364 L45,362 L36,360 L29,358 L25,357 L24,350 L27,345 L22,348 L21,353 L19,356 L8,354 L3,351 L2,349 L-3,349 L-16,360 L-19,364 L-25,364 L-25,371 L-30,375 L-37,374 L-40,371 L-43,364 L-48,362 L-52,355 L-62,354 L-64,358 L-77,358 L-86,362 L-93,362 L-98,360 L-105,359 L-107,357 L-113,358 L-120,360 L-133,360 L-137,361 L-142,357 L-142,351 L-150,351 L-152,349 L-153,338 L-151,333 L-150,327 L-154,329 L-165,330 L-167,323 L-166,316 L-173,315 L-182,318 L-183,319 L-188,319 L-189,315 L-187,309 L-194,310 L-196,314 L-201,319 L-211,324 L-217,324 L-219,329 L-222,335 L-225,338 L-230,337 L-232,335 L-231,327 L-241,327 L-243,326 L-243,324 L-245,324 L-247,321 L-247,314 L-250,306 L-262,300 L-266,292 L-265,285 L-269,278 L-275,274 L-277,270 L-277,264 L-280,260 L-279,256 L-275,255 L-276,250 L-281,245 L-280,241 L-275,236 L-271,232 L-264,231 L-258,230 L-255,225 L-245,226 L-242,219 L-226,214 L-221,216 L-219,217 L-220,210 L-219,208 L-210,207 L-192,207 L-187,208 L-184,207 L-181,208 L-179,211 L-164,213 L-160,217 L-160,219 L-154,218 L-152,214 L-151,213 L-143,214 L-139,216 L-135,224 L-133,229 L-133,232 L-130,230 L-123,230 L-120,233 L-120,235 L-116,237 L-111,240 L-107,239 L-104,237 L-99,237 L-96,242 L-87,247 L-86,254 L-80,257 L-78,261 L-75,259 L-66,260 L-60,257 L-48,255 L-41,252 L-36,245 L-32,241 L-32,239 L-36,236 L-36,233 L-38,233 L-38,230 L-44,232 L-49,231 L-47,229 L-36,227 L-34,223 L-30,222 L-32,216 L-45,205 L-49,203 L-52,207 L-57,206 L-60,205 L-69,211 L-79,213 L-81,215 L-86,215 L-88,212 L-87,199 L-92,186 L-92,177 L-96,172 L-98,161 L-100,157 L-99,141 L-100,139 L-102,127 L-103,126 L-104,115 L-99,113 L-101,107 L-101,100 L-96,94 L-94,83 L-94,76 L-90,70 L-86,67 L-82,55 L-78,50 L-72,46 L-70,46 L-69,43 L-62,40 L-59,38 L-46,38 L-47,35 L-41,28 L-27,22 L-18,18 L-14,13 L-11,10 L-8,5 L-3,1 Z " fill="#97FEB5" transform="translate(744,143)"/>
<path d="M0,0 L5,0 L6,1 L6,11 L1,16 L-4,18 L-15,19 L-18,25 L-22,27 L-28,27 L-30,31 L-39,35 L-46,39 L-53,47 L-57,46 L-57,44 L-62,47 L-65,49 L-66,58 L-71,66 L-76,72 L-76,86 L-81,94 L-83,97 L-80,100 L-79,104 L-81,112 L-83,115 L-82,127 L-80,136 L-81,143 L-79,147 L-79,153 L-80,154 L-79,161 L-76,165 L-75,168 L-74,184 L-71,190 L-68,195 L-69,210 L-64,218 L-65,225 L-68,230 L-75,229 L-78,229 L-80,232 L-86,232 L-95,226 L-102,220 L-107,215 L-109,210 L-119,208 L-124,210 L-129,209 L-138,206 L-139,203 L-143,201 L-148,202 L-155,202 L-155,200 L-169,200 L-185,204 L-200,203 L-209,209 L-219,210 L-225,215 L-237,220 L-246,226 L-255,229 L-260,238 L-265,239 L-270,236 L-272,232 L-271,226 L-265,212 L-265,199 L-263,195 L-256,190 L-254,190 L-253,185 L-255,178 L-254,171 L-251,168 L-249,167 L-240,167 L-242,163 L-242,156 L-240,152 L-239,142 L-235,138 L-231,127 L-226,122 L-223,122 L-222,118 L-215,113 L-212,109 L-207,108 L-207,106 L-205,105 L-207,98 L-205,95 L-195,92 L-193,92 L-191,87 L-183,82 L-181,75 L-182,72 L-182,65 L-176,57 L-172,55 L-171,49 L-167,46 L-162,44 L-150,43 L-149,32 L-144,28 L-142,27 L-136,27 L-132,29 L-130,25 L-123,21 L-118,22 L-115,23 L-110,24 L-108,25 L-106,20 L-99,14 L-92,13 L-89,16 L-82,16 L-70,12 L-61,12 L-59,8 L-50,5 L-44,2 L-21,1 L-18,3 L-5,3 Z " fill="#FEFEFE" transform="translate(720,144)"/>
<path d="M0,0 L10,0 L29,4 L48,7 L53,12 L52,19 L53,22 L58,26 L59,28 L68,30 L73,26 L79,27 L81,28 L82,22 L84,19 L90,20 L95,26 L98,31 L102,34 L103,39 L100,48 L92,51 L93,55 L98,60 L96,65 L92,71 L85,74 L84,81 L83,88 L78,93 L74,96 L69,98 L68,103 L70,106 L70,111 L66,114 L56,116 L53,125 L46,124 L41,119 L36,116 L20,112 L14,110 L6,109 L2,105 L-1,99 L-2,98 L-2,93 L3,89 L7,79 L4,80 L-1,86 L-4,88 L-4,107 L1,111 L8,115 L27,117 L36,124 L43,129 L44,131 L44,137 L41,142 L36,144 L29,145 L22,153 L12,159 L8,163 L-5,167 L-8,170 L-11,175 L-19,177 L-29,180 L-35,185 L-41,187 L-51,189 L-55,191 L-68,191 L-71,189 L-72,179 L-78,178 L-82,174 L-85,168 L-84,163 L-79,157 L-77,148 L-71,137 L-65,133 L-60,131 L-62,127 L-61,118 L-57,112 L-53,106 L-51,105 L-52,96 L-47,91 L-42,85 L-41,80 L-44,73 L-43,69 L-38,64 L-36,60 L-40,58 L-43,52 L-42,46 L-38,33 L-42,31 L-43,28 L-43,21 L-38,15 L-26,10 L-9,5 L-3,1 Z " fill="#E5E3D4" transform="translate(894,524)"/>
<path d="M0,0 L14,3 L21,2 L24,1 L31,1 L37,2 L43,2 L44,8 L51,8 L56,10 L65,19 L65,24 L65,26 L70,29 L73,37 L73,48 L75,53 L81,55 L82,59 L81,66 L82,73 L83,77 L88,82 L93,87 L96,95 L105,99 L106,106 L111,111 L112,113 L112,120 L108,125 L102,129 L97,131 L94,135 L93,139 L91,139 L90,143 L86,145 L82,146 L78,151 L70,150 L63,148 L61,148 L59,152 L47,156 L45,157 L27,159 L19,155 L16,152 L12,151 L12,149 L5,148 L0,145 L-1,143 L-1,137 L-8,137 L-11,134 L-14,124 L-17,121 L-19,114 L-18,108 L-15,105 L-13,99 L-8,95 L-15,90 L-19,83 L-22,79 L-35,80 L-41,85 L-47,85 L-51,83 L-54,77 L-60,77 L-70,69 L-73,64 L-75,60 L-85,56 L-87,53 L-87,45 L-85,42 L-83,42 L-83,35 L-80,30 L-70,30 L-69,24 L-63,20 L-60,14 L-51,10 L-34,8 L-25,8 L-22,11 L-22,16 L-25,18 L-25,25 L-26,30 L-25,34 L-25,56 L-20,61 L-17,51 L-22,49 L-23,47 L-23,38 L-22,31 L-21,18 L-17,8 L-15,5 L-7,3 Z " fill="#97FEB5" transform="translate(554,592)"/>
<path d="M0,0 L10,0 L22,3 L24,4 L30,4 L32,3 L38,3 L44,7 L47,10 L47,15 L45,17 L52,19 L55,24 L58,30 L57,35 L52,41 L45,44 L47,48 L47,57 L46,59 L40,61 L39,67 L37,68 L30,68 L29,71 L27,71 L25,76 L22,78 L14,78 L11,82 L7,83 L4,88 L-1,91 L-8,90 L-20,85 L-28,77 L-35,75 L-39,72 L-46,70 L-49,67 L-49,62 L-46,57 L-43,52 L-44,41 L-45,34 L-41,30 L-34,25 L-34,16 L-30,12 L-17,6 L-1,1 Z " fill="#FEFEFE" transform="translate(453,127)"/>
<path d="M0,0 L7,1 L9,2 L20,2 L26,6 L31,14 L31,17 L38,19 L40,21 L42,30 L41,40 L44,44 L42,48 L37,53 L32,55 L26,64 L19,70 L13,71 L19,64 L26,58 L29,51 L35,48 L36,43 L35,40 L38,36 L36,31 L35,24 L29,18 L24,18 L23,15 L22,11 L16,8 L9,6 L-2,5 L-8,7 L-9,11 L-22,12 L-28,17 L-34,19 L-46,24 L-55,24 L-58,26 L-66,25 L-65,23 L-54,19 L-48,14 L-35,15 L-30,13 L-26,9 L-22,7 L-11,5 L-2,2 Z " fill="#66AFFD" transform="translate(759,417)"/>
<path d="M0,0 L7,1 L14,4 L16,11 L10,18 L8,24 L9,26 L9,33 L8,37 L7,50 L3,58 L-1,60 L-2,53 L3,48 L4,44 L4,36 L3,33 L4,31 L5,19 L9,14 L11,10 L11,6 L3,6 L-1,7 L-3,3 Z " fill="#66AEFD" transform="translate(585,392)"/>
<path d="M0,0 L1,0 L3,10 L7,15 L7,17 L11,19 L16,20 L18,19 L27,20 L33,25 L33,26 L24,26 L17,27 L12,25 L10,22 L5,20 L-3,14 L-2,4 L-2,1 Z " fill="#66AFFC" transform="translate(657,415)"/>
<path d="M0,0 L4,0 L4,4 L2,5 L1,11 L-2,11 L-2,9 L-5,9 L-5,12 L-7,12 L-7,4 L-3,1 Z " fill="#72B5FD" transform="translate(441,143)"/>
<path d="M0,0 L6,0 L7,3 L5,3 L5,5 L-4,7 L-4,3 Z " fill="#66AEFE" transform="translate(458,139)"/>
<path d="M0,0 L0,3 L-1,5 L-1,17 L-3,17 L-3,19 L-5,19 L-4,3 L-2,3 L-2,1 Z " fill="#6AB5F7" transform="translate(679,210)"/>
<path d="M0,0 L6,3 L7,6 L-4,6 L-2,2 Z " fill="#65AEFD" transform="translate(962,311)"/>
<path d="M0,0 L3,0 L3,7 L1,7 L0,10 L-2,10 L0,2 Z " fill="#6CB8F4" transform="translate(674,236)"/>
<path d="M0,0 L3,1 L-1,4 L2,6 L-4,7 L-4,3 Z " fill="#7FBDFC" transform="translate(458,139)"/>
<path d="M0,0 L3,0 L2,5 L-2,7 L-1,2 Z " fill="#69B3F8" transform="translate(668,246)"/>
<path d="M0,0 L4,1 L4,3 L2,3 L3,6 L-1,9 L-1,6 Z " fill="#69B4F8" transform="translate(589,637)"/>
<path d="M0,0 L5,1 L6,4 L2,5 Z " fill="#6BB6F6" transform="translate(788,366)"/>
<path d="M0,0 L3,0 L2,5 L-1,5 Z " fill="#6CB8F4" transform="translate(666,294)"/>
<path d="M0,0 L4,0 L3,4 L0,4 Z " fill="#68B2F9" transform="translate(734,220)"/>
<path d="M0,0 L4,0 L4,2 L-2,4 L-3,1 Z " fill="#6AB6F6" transform="translate(778,468)"/>
<path d="M0,0 L3,1 L3,5 L0,5 Z " fill="#68B1FA" transform="translate(695,296)"/>
<path d="M0,0 L3,1 L2,4 L-1,3 Z " fill="#69B4F8" transform="translate(787,381)"/>
<path d="M0,0 L2,0 L1,5 L-1,5 Z " fill="#6BB6F5" transform="translate(792,377)"/>
<path d="M0,0 L5,1 L5,3 L1,2 Z " fill="#67B0FB" transform="translate(540,658)"/>
<path d="M0,0 L2,0 L3,3 L1,5 Z " fill="#7ACFDF" transform="translate(734,366)"/>
<path d="M0,0 L2,0 L3,4 L1,5 Z " fill="#73C4EA" transform="translate(696,232)"/>
<path d="M0,0 L2,2 L1,4 L-2,3 Z " fill="#6FBDF0" transform="translate(787,373)"/>
<path d="M0,0 L3,0 L3,3 L0,3 Z " fill="#72C2EB" transform="translate(791,362)"/>
<path d="M0,0 L2,1 L1,4 L-1,4 Z " fill="#8DC5FA" transform="translate(436,145)"/>
<path d="M0,0 L3,3 L-2,2 Z " fill="#6DBAF2" transform="translate(594,619)"/>
<path d="M0,0 L3,0 L2,3 L0,3 Z " fill="#6EBCF0" transform="translate(659,243)"/>
<path d="M0,0 L2,3 L-1,4 Z " fill="#67B0FB" transform="translate(599,623)"/>
<path d="M0,0 L3,1 L1,3 Z " fill="#77CBE3" transform="translate(775,469)"/>
<path d="M0,0 L2,2 L-1,2 Z " fill="#65ADFE" transform="translate(911,276)"/>
</svg>
